<?xml version="1.0" encoding="UTF-8"?>
<svg xmlns="http://www.w3.org/2000/svg" height="325" width="325" class="pyqrcode"><path transform="scale(5)" stroke="#000" class="pyqrline" d="M4 4.5h7m3 0h1m2 0h3m1 0h1m2 0h4m3 0h2m1 0h1m1 0h2m5 0h2m1 0h2m1 0h3m2 0h7m-57 1h1m5 0h1m3 0h1m1 0h2m2 0h1m3 0h3m1 0h1m3 0h1m1 0h1m2 0h5m1 0h1m1 0h3m1 0h1m1 0h1m2 0h1m5 0h1m-57 1h1m1 0h3m1 0h1m2 0h1m2 0h3m1 0h4m5 0h2m1 0h1m3 0h2m8 0h3m1 0h2m2 0h1m1 0h3m1 0h1m-57 1h1m1 0h3m1 0h1m3 0h1m1 0h1m1 0h1m3 0h2m1 0h1m1 0h3m3 0h1m4 0h1m2 0h1m1 0h1m1 0h3m3 0h1m2 0h1m1 0h3m1 0h1m-57 1h1m1 0h3m1 0h1m1 0h2m1 0h5m1 0h1m2 0h3m2 0h7m5 0h4m2 0h1m1 0h1m1 0h1m2 0h1m1 0h3m1 0h1m-57 1h1m5 0h1m2 0h1m1 0h4m1 0h1m1 0h3m1 0h5m3 0h1m2 0h1m1 0h1m2 0h1m1 0h3m1 0h3m3 0h1m5 0h1m-57 1h7m1 0h1m1 0h1m1 0h1m1 0h1m1 0h1m1 0h1m1 0h1m1 0h1m1 0h1m1 0h1m1 0h1m1 0h1m1 0h1m1 0h1m1 0h1m1 0h1m1 0h1m1 0h1m1 0h1m1 0h1m1 0h1m1 0h7m-49 1h1m2 0h2m1 0h1m1 0h1m1 0h1m1 0h5m1 0h1m3 0h1m1 0h1m2 0h2m1 0h1m1 0h2m1 0h4m-45 1h2m2 0h4m1 0h1m1 0h1m2 0h4m1 0h2m3 0h6m2 0h2m3 0h3m1 0h1m3 0h4m1 0h1m-53 1h5m5 0h2m7 0h1m1 0h1m1 0h1m2 0h2m3 0h2m1 0h2m3 0h5m4 0h2m2 0h1m1 0h1m1 0h1m-57 1h1m3 0h1m1 0h1m2 0h1m4 0h1m2 0h3m1 0h4m2 0h1m2 0h1m6 0h2m2 0h2m1 0h1m1 0h3m2 0h1m1 0h4m-57 1h1m2 0h1m1 0h1m7 0h3m1 0h1m2 0h1m3 0h4m2 0h1m2 0h1m3 0h1m1 0h2m3 0h1m1 0h2m2 0h2m1 0h1m1 0h2m-56 1h1m2 0h3m4 0h2m1 0h1m1 0h2m3 0h1m1 0h3m5 0h1m3 0h1m1 0h2m2 0h1m1 0h1m2 0h5m3 0h1m1 0h1m-55 1h3m2 0h2m1 0h3m4 0h1m2 0h3m3 0h4m1 0h2m1 0h1m1 0h1m1 0h1m4 0h1m5 0h2m-47 1h1m1 0h2m2 0h1m1 0h1m1 0h2m1 0h2m2 0h1m1 0h1m4 0h1m1 0h1m4 0h1m1 0h3m1 0h1m2 0h2m3 0h7m-56 1h1m4 0h1m2 0h2m1 0h3m2 0h1m1 0h1m1 0h1m2 0h3m3 0h2m1 0h1m1 0h1m5 0h1m5 0h2m1 0h1m1 0h6m-53 1h3m1 0h2m1 0h3m2 0h1m1 0h1m1 0h2m8 0h3m2 0h1m3 0h1m3 0h2m1 0h1m1 0h2m1 0h1m1 0h1m2 0h1m-53 1h1m3 0h1m1 0h2m1 0h1m4 0h1m2 0h1m4 0h6m1 0h2m4 0h1m3 0h4m4 0h1m2 0h3m-56 1h2m2 0h2m1 0h2m1 0h1m3 0h2m10 0h1m5 0h1m1 0h1m2 0h1m1 0h2m3 0h3m2 0h1m1 0h4m-56 1h2m1 0h3m1 0h1m1 0h1m1 0h2m1 0h3m8 0h1m1 0h1m5 0h4m1 0h4m1 0h2m2 0h1m1 0h4m2 0h1m-55 1h6m3 0h3m2 0h1m1 0h1m1 0h5m1 0h2m1 0h1m1 0h1m2 0h1m4 0h3m1 0h1m2 0h4m2 0h3m-54 1h1m1 0h1m1 0h2m1 0h2m2 0h2m2 0h1m1 0h1m2 0h1m3 0h6m1 0h7m2 0h3m5 0h2m2 0h1m1 0h1m1 0h1m-55 1h6m1 0h1m1 0h2m1 0h1m1 0h3m2 0h1m5 0h1m1 0h2m2 0h1m1 0h2m4 0h4m3 0h1m1 0h3m1 0h3m-55 1h1m1 0h1m3 0h3m2 0h1m2 0h1m1 0h1m1 0h2m1 0h1m3 0h2m4 0h1m6 0h5m1 0h5m2 0h1m1 0h1m-50 1h1m3 0h1m1 0h1m2 0h2m2 0h3m1 0h2m3 0h2m1 0h5m1 0h1m2 0h1m2 0h1m2 0h1m-47 1h2m1 0h3m2 0h2m1 0h3m1 0h1m1 0h1m2 0h1m1 0h6m1 0h1m6 0h3m1 0h1m1 0h2m1 0h1m1 0h1m1 0h2m1 0h1m1 0h2m-55 1h1m2 0h7m1 0h2m1 0h2m3 0h5m1 0h7m1 0h1m4 0h1m4 0h2m1 0h8m-55 1h2m1 0h2m3 0h6m2 0h1m3 0h2m4 0h1m3 0h2m1 0h1m1 0h1m1 0h2m1 0h3m5 0h1m3 0h4m-55 1h1m1 0h2m1 0h1m1 0h1m1 0h1m4 0h3m1 0h1m4 0h3m1 0h1m1 0h3m2 0h5m1 0h1m1 0h2m1 0h1m1 0h1m1 0h1m1 0h4m-55 1h1m1 0h2m3 0h4m2 0h2m3 0h1m2 0h2m2 0h1m3 0h1m2 0h3m3 0h1m1 0h1m3 0h2m1 0h1m3 0h3m1 0h1m-57 1h1m3 0h7m1 0h3m2 0h1m3 0h2m1 0h1m1 0h6m1 0h1m1 0h4m1 0h1m5 0h8m1 0h1m-53 1h1m1 0h1m1 0h1m1 0h1m2 0h1m1 0h4m3 0h3m1 0h1m4 0h1m1 0h2m2 0h3m1 0h1m1 0h1m2 0h1m2 0h3m1 0h1m2 0h2m-55 1h3m1 0h1m2 0h3m2 0h1m4 0h1m4 0h2m2 0h2m2 0h2m1 0h3m1 0h4m2 0h1m5 0h1m2 0h3m-54 1h1m3 0h4m1 0h1m3 0h3m1 0h2m1 0h1m1 0h3m1 0h3m2 0h2m1 0h1m3 0h4m3 0h1m1 0h1m2 0h1m1 0h1m-56 1h1m2 0h1m1 0h5m5 0h2m1 0h2m1 0h1m1 0h1m3 0h2m1 0h3m2 0h1m1 0h1m2 0h4m3 0h1m1 0h3m2 0h3m-56 1h2m4 0h2m1 0h1m1 0h1m4 0h2m2 0h2m2 0h1m1 0h2m1 0h2m1 0h1m3 0h1m1 0h1m3 0h9m1 0h1m1 0h2m-57 1h1m1 0h1m3 0h1m2 0h4m2 0h1m1 0h3m2 0h1m3 0h2m3 0h1m1 0h1m1 0h5m2 0h1m3 0h1m2 0h2m4 0h1m-55 1h1m2 0h2m1 0h3m1 0h3m2 0h3m1 0h1m1 0h1m1 0h1m2 0h2m1 0h2m3 0h5m3 0h1m1 0h1m1 0h1m2 0h2m1 0h1m1 0h2m-54 1h1m1 0h2m2 0h2m2 0h1m2 0h1m1 0h3m1 0h1m1 0h1m4 0h2m1 0h2m1 0h2m1 0h1m2 0h1m2 0h1m2 0h1m4 0h2m-52 1h2m1 0h1m1 0h3m2 0h2m1 0h1m2 0h3m2 0h1m2 0h3m2 0h3m1 0h4m1 0h3m2 0h3m2 0h1m2 0h2m-55 1h2m1 0h1m2 0h3m2 0h2m2 0h2m1 0h3m1 0h1m1 0h2m1 0h1m1 0h1m1 0h3m2 0h1m2 0h1m1 0h3m1 0h6m1 0h1m1 0h3m-57 1h1m7 0h3m4 0h1m3 0h2m3 0h1m1 0h1m5 0h4m2 0h1m2 0h1m1 0h2m1 0h1m2 0h1m2 0h1m1 0h1m1 0h1m-55 1h1m1 0h1m1 0h1m1 0h1m1 0h1m1 0h2m1 0h2m1 0h1m1 0h1m1 0h2m6 0h2m7 0h7m1 0h3m1 0h1m1 0h1m1 0h1m-55 1h1m1 0h1m3 0h1m1 0h1m1 0h1m1 0h1m1 0h1m1 0h2m1 0h2m5 0h1m1 0h1m2 0h1m1 0h3m1 0h1m7 0h4m1 0h1m-52 1h2m2 0h3m4 0h1m1 0h5m1 0h3m2 0h1m1 0h1m2 0h2m1 0h3m1 0h2m1 0h4m7 0h1m-50 1h1m5 0h3m1 0h1m1 0h1m3 0h2m2 0h1m1 0h1m2 0h2m1 0h1m2 0h1m1 0h2m6 0h1m1 0h2m8 0h3m-57 1h1m1 0h1m2 0h4m2 0h3m2 0h1m1 0h1m1 0h1m1 0h1m1 0h3m1 0h2m1 0h1m1 0h2m1 0h2m4 0h3m1 0h2m1 0h8m-57 1h5m2 0h2m3 0h5m1 0h2m3 0h1m1 0h2m2 0h6m2 0h1m4 0h1m1 0h1m1 0h1m1 0h4m1 0h1m-48 1h4m2 0h3m2 0h3m4 0h8m3 0h3m3 0h2m3 0h1m1 0h9m-49 1h1m1 0h1m2 0h1m2 0h1m2 0h1m2 0h1m1 0h1m1 0h1m3 0h2m2 0h1m1 0h1m1 0h1m1 0h1m2 0h3m2 0h1m3 0h2m-54 1h7m1 0h3m1 0h1m2 0h2m1 0h6m2 0h1m1 0h1m1 0h1m2 0h1m2 0h1m2 0h2m2 0h2m2 0h2m1 0h1m1 0h2m-54 1h1m5 0h1m3 0h2m2 0h1m2 0h2m1 0h5m1 0h1m3 0h1m1 0h1m2 0h1m3 0h3m1 0h2m2 0h2m3 0h1m1 0h1m1 0h1m-57 1h1m1 0h3m1 0h1m2 0h1m1 0h4m2 0h5m3 0h7m2 0h2m2 0h2m4 0h1m1 0h10m-56 1h1m1 0h3m1 0h1m1 0h1m1 0h1m1 0h4m2 0h1m3 0h2m1 0h1m1 0h1m1 0h1m2 0h1m1 0h1m1 0h1m2 0h1m5 0h4m2 0h1m1 0h1m1 0h1m-56 1h1m1 0h3m1 0h1m1 0h2m1 0h1m2 0h1m2 0h9m1 0h8m1 0h1m1 0h1m1 0h2m1 0h1m1 0h1m1 0h3m-50 1h1m5 0h1m8 0h3m1 0h1m1 0h1m3 0h4m1 0h1m1 0h1m3 0h1m1 0h2m1 0h1m2 0h2m4 0h1m5 0h1m-57 1h7m3 0h1m4 0h2m1 0h2m2 0h4m2 0h1m1 0h1m1 0h3m2 0h2m1 0h2m5 0h1m1 0h2m2 0h1"/></svg>
